<svg width="192" height="192" viewBox="0 0 192 192" fill="none" xmlns="http://www.w3.org/2000/svg">
  <!-- Looping arrow as chat bubble -->
  <path d="M96 32c-35.3 0-64 28.7-64 64 0 22.1 11.2 41.6 28.3 53.2l-8.3 20.8c-1.2 3 2.1 5.7 5 4.3l22.2-10.2c5.3 1.2 10.9 1.9 16.8 1.9 35.3 0 64-28.7 64-64s-28.7-64-64-64zm0 8c30.9 0 56 25.1 56 56s-25.1 56-56 56c-5.2 0-10.2-0.7-15-2.1l-1.7-.5-19.2 8.8 7.2-18c-17.1-10.1-28.3-28.7-28.3-49.2 0-30.9 25.1-56 56-56zm0 0v16m0 0c-22.1 0-40 17.9-40 40m40-40c22.1 0 40 17.9 40 40" stroke="#222" stroke-width="4" fill="none"/>
  <!-- Ellipsis inside chat bubble -->
  <circle cx="72" cy="96" r="8" fill="#222"/>
  <circle cx="96" cy="96" r="8" fill="#222"/>
  <circle cx="120" cy="96" r="8" fill="#222"/>
</svg>
